name C:/MyDriveSym/Projects/mobilecap/Data\Session20210830_0002\mocap\ForceDataProcessed\walking2_forces.mot
datacolumns 19
datarows 9
range 0.64950000 0.65350000
endheader 
time	R_ground_force_vx	R_ground_force_vy	R_ground_force_vz	R_ground_force_px	R_ground_force_py	R_ground_force_pz	R_ground_torque_x	R_ground_torque_y	R_ground_torque_z	L_ground_force_vx	L_ground_force_vy	L_ground_force_vz	L_ground_force_px	L_ground_force_py	L_ground_force_pz	L_ground_torque_x	L_ground_torque_y	L_ground_torque_z	
          0.64950000	         82.40953600	        369.79347200	         -0.87263100	          0.29504900	          0.00600000	         -0.13999100	          0.00000000	         -1.19019100	          0.00000000	        -82.79642200	        564.86595100	        -10.27318900	          0.84603900	          0.00600000	         -0.23374400	          0.00000000	          1.23153700	          0.00000000	
          0.65000000	         81.90749700	        366.68241600	         -0.79376900	          0.29523700	          0.00600000	         -0.14000300	          0.00000000	         -1.18264500	          0.00000000	        -83.35874800	        567.74963300	        -10.04243300	          0.84624800	          0.00600000	         -0.23381000	          0.00000000	          1.24022000	          0.00000000	
          0.65050000	         81.40282600	        363.57559900	         -0.71589100	          0.29542500	          0.00600000	         -0.14001600	          0.00000000	         -1.17508600	          0.00000000	        -83.91913500	        570.62241400	         -9.80943000	          0.84645600	          0.00600000	         -0.23387700	          0.00000000	          1.24884700	          0.00000000	
          0.65100000	         80.89559300	        360.47325000	         -0.63900200	          0.29561400	          0.00600000	         -0.14002800	          0.00000000	         -1.16751200	          0.00000000	        -84.47751600	        573.48407500	         -9.57421500	          0.84666500	          0.00600000	         -0.23394300	          0.00000000	          1.25741600	          0.00000000	
          0.65150000	         80.38586800	        357.37559500	         -0.56310400	          0.29580400	          0.00600000	         -0.14004000	          0.00000000	         -1.15992600	          0.00000000	        -85.03382300	        576.33439500	         -9.33682500	          0.84687300	          0.00600000	         -0.23400900	          0.00000000	          1.26592400	          0.00000000	
          0.65200000	         79.87372000	        354.28286000	         -0.48820000	          0.29599400	          0.00600000	         -0.14005200	          0.00000000	         -1.15232700	          0.00000000	        -85.58799100	        579.17315600	         -9.09729800	          0.84708100	          0.00600000	         -0.23407500	          0.00000000	          1.27436700	          0.00000000	
          0.65250000	         79.35922100	        351.19526900	         -0.41429200	          0.29618500	          0.00600000	         -0.14006400	          0.00000000	         -1.14471600	          0.00000000	        -86.13995100	        582.00014200	         -8.85567200	          0.84728800	          0.00600000	         -0.23414100	          0.00000000	          1.28274400	          0.00000000	
          0.65300000	         78.84244000	        348.11304500	         -0.34138200	          0.29637700	          0.00600000	         -0.14007600	          0.00000000	         -1.13709300	          0.00000000	        -86.68963900	        584.81513800	         -8.61198500	          0.84749500	          0.00600000	         -0.23420700	          0.00000000	          1.29105100	          0.00000000	
          0.65350000	         78.32345000	        345.03641000	         -0.26947300	          0.29657000	          0.00600000	         -0.14008800	          0.00000000	         -1.12946100	          0.00000000	        -87.23698600	        587.61793200	         -8.36627800	          0.84770200	          0.00600000	         -0.23427300	          0.00000000	          1.29928600	          0.00000000	
